HIERARCHY
ROOT Bip001_Pelvis
{
  OFFSET 34.4345 95.6767 -26.8758
  CHANNELS 6 Xposition Yposition Zposition Zrotation Xrotation Yrotation
  JOINT Bip001_Spine
  {
    OFFSET 1.4188e-005 10.2191 -0.0116013
    CHANNELS 3 Zrotation Xrotation Yrotation
    JOINT Bip001_L_Thigh
    {
      OFFSET 11.0458 -10.2192 0.0116197
      CHANNELS 3 Zrotation Xrotation Yrotation
      JOINT Bip001_L_Calf
      {
        OFFSET -0.707118 -44.0221 0.360014
        CHANNELS 3 Zrotation Xrotation Yrotation
        JOINT Bip001_L_Foot
        {
          OFFSET -0.651902 -40.5938 -3.56146
          CHANNELS 3 Zrotation Xrotation Yrotation
          JOINT Bip001_L_Toe0
          {
            OFFSET 0.0530839 -10.2181 13.1504
            CHANNELS 3 Zrotation Xrotation Yrotation
            End Site
            {
              OFFSET -1.02532e-005 0 7.55606
            }
          }
        }
      }
    }
    JOINT Bip001_R_Thigh
    {
      OFFSET -11.0458 -10.2191 0.0115893
      CHANNELS 3 Zrotation Xrotation Yrotation
      JOINT Bip001_R_Calf
      {
        OFFSET 0.706994 -44.0221 0.35984
        CHANNELS 3 Zrotation Xrotation Yrotation
        JOINT Bip001_R_Foot
        {
          OFFSET 0.651786 -40.5938 -3.5613
          CHANNELS 3 Zrotation Xrotation Yrotation
          JOINT Bip001_R_Toe0
          {
            OFFSET -0.0531479 -10.2181 13.1504
            CHANNELS 3 Zrotation Xrotation Yrotation
            End Site
            {
              OFFSET -1.02894e-005 0 7.55606
            }
          }
        }
      }
    }
    JOINT Bip001_Spine1
    {
      OFFSET 1.87041e-005 14.5736 1.08638
      CHANNELS 3 Zrotation Xrotation Yrotation
      JOINT Bip001_Spine2
      {
        OFFSET 2.24614e-005 14.5058 -1.69078
        CHANNELS 3 Zrotation Xrotation Yrotation
        JOINT Bip001_Neck
        {
          OFFSET 2.20278e-005 15.3945 -0.489414
          CHANNELS 3 Zrotation Xrotation Yrotation
          JOINT Bip001_L_Clavicle
          {
            OFFSET 6.06036 -0.000579998 0.00836775
            CHANNELS 3 Zrotation Xrotation Yrotation
            JOINT Bip001_L_UpperArm
            {
              OFFSET 11.5509 -0.0600302 0.00193952
              CHANNELS 3 Zrotation Xrotation Yrotation
              JOINT Bip001_L_Forearm
              {
                OFFSET 25.9523 0.0806089 -2.15551
                CHANNELS 3 Zrotation Xrotation Yrotation
                JOINT Bip001_L_Hand
                {
                  OFFSET 32.2475 0.153767 1.63968
                  CHANNELS 3 Zrotation Xrotation Yrotation
                  JOINT Bip001_L_Finger0
                  {
                    OFFSET 6.04639 -2.20976 5.90322
                    CHANNELS 3 Zrotation Xrotation Yrotation
                    End Site
                    {
                      OFFSET 4.22375 -1.43895 0.606485
                    }
                  }
                  JOINT Bip001_L_Finger1
                  {
                    OFFSET 11.0826 -0.704819 -0.198153
                    CHANNELS 3 Zrotation Xrotation Yrotation
                    End Site
                    {
                      OFFSET 6.20027 -0.397518 -0.0787166
                    }
                  }
                }
              }
            }
          }
          JOINT Bip001_R_Clavicle
          {
            OFFSET -6.06037 -0.000563197 0.00835105
            CHANNELS 3 Zrotation Xrotation Yrotation
            JOINT Bip001_R_UpperArm
            {
              OFFSET -11.5509 -0.0599978 0.00190698
              CHANNELS 3 Zrotation Xrotation Yrotation
              JOINT Bip001_R_Forearm
              {
                OFFSET -25.9523 0.0806822 -2.15589
                CHANNELS 3 Zrotation Xrotation Yrotation
                JOINT Bip001_R_Hand
                {
                  OFFSET -32.2475 0.153859 1.63989
                  CHANNELS 3 Zrotation Xrotation Yrotation
                  JOINT Bip001_R_Finger0
                  {
                    OFFSET -6.04641 -2.20976 5.90317
                    CHANNELS 3 Zrotation Xrotation Yrotation
                    End Site
                    {
                      OFFSET -4.22376 -1.43895 0.60647
                    }
                  }
                  JOINT Bip001_R_Finger1
                  {
                    OFFSET -11.0826 -0.704794 -0.198182
                    CHANNELS 3 Zrotation Xrotation Yrotation
                    End Site
                    {
                      OFFSET -6.20028 -0.397504 -0.0787333
                    }
                  }
                }
              }
            }
          }
          JOINT Bip001_Head
          {
            OFFSET 1.09673e-005 11.2744 2.05948
            CHANNELS 3 Zrotation Xrotation Yrotation
            End Site
            {
              OFFSET 2.89576e-005 20.8808 -2.77728e-005
            }
          }
        }
      }
    }
  }
}
MOTION
Frames:	12
Frame Time:	0.04
33.6059 95.9427 -27.914 -0.959548 1.61332 7.21412 -0.292217 1.47338 0.48095 6.34555 -6.06286 5.11048 -0.965746 9.17857 -11.4381 2.89436 -4.84147 -0.00478152 0.581808 -4.2658 -0.00912917 -1.67737 -2.09642 -1.36514 0.129964 7.98198 -0.524666 -7.05555 -7.3639 -3.1208 2.45849 -8.17099 2.42121 -0.598744 2.94425 0.970082 -0.598563 2.94424 0.970081 0.704554 -9.66997 -5.62474 -24.3235 9.47654 2.56858 -55.3598 39.8639 8.47155 13.2085 -13.3255 -29.2761 7.77893 0.828754 -0.458531 4.77083e-015 0 -3.18055e-015 4.77083e-015 6.36111e-015 -0 -0.813606 13.1613 37.917 72.8945 -48.5539 77.4526 -41.2851 4.86212 82.5756 -27.6471 7.08539 4.34524 1.98785e-016 3.18055e-015 -1.98785e-016 -3.97569e-016 0 -2.98177e-016 0.101233 -5.09783 -5.30064 
33.461 95.9356 -27.8183 -1.11646 1.89261 7.90223 -0.289948 1.41913 0.428217 6.56403 -6.45593 4.74878 -1.08766 9.2635 -11.7776 3.71444 -4.46426 -0.0269603 0.79928 -4.67013 -0.197006 -1.40687 -2.04857 -1.2596 0.162326 7.68361 -0.643409 -7.22672 -7.24439 -3.69065 2.45777 -8.17104 2.41354 -0.598709 2.83601 0.863925 -0.59198 2.83601 0.863966 0.623607 -9.80911 -5.68506 -24.3605 9.51744 2.91761 -55.7577 40.233 9.03082 13.1577 -13.5238 -29.6903 7.80639 0.742771 -0.556376 -3.18055e-015 -3.18055e-015 -0 -1.59028e-015 -6.36111e-015 3.18055e-015 -2.47706 12.7 39.6612 45.7114 -39.9626 60.2407 -43.7252 -5.20698 64.9549 -22.8867 8.26498 4.38659 -0 0 3.97569e-016 -2.38542e-015 0 -0 0.374485 -4.68745 -5.42104 
33.342 95.9338 -27.7537 -1.31746 2.19707 8.41682 -0.292994 1.36287 0.405544 6.88346 -6.91641 4.22915 -1.2361 9.51194 -11.6275 2.78021 -4.93011 -0.00131045 0.526216 -4.21464 0.0621355 -1.13493 -2.06925 -1.13126 0.19869 7.35909 -0.705333 -7.40237 -7.06339 -4.20278 2.45251 -8.15069 2.41153 -0.59505 2.72362 0.81862 -0.595452 2.72362 0.818492 0.639848 -9.91472 -5.85327 -24.5541 9.43696 3.4638 -55.8349 41.0143 9.24859 13.0466 -13.5353 -29.6479 7.51563 0.818361 -0.56785 -1.59028e-015 -6.36111e-015 6.36111e-015 -3.18055e-015 -3.18056e-015 9.54166e-015 -2.82955 12.7507 40.9998 38.4748 -37.0983 59.0667 -46.4487 -9.21426 57.1135 -25.0402 7.85626 5.0363 -2.98177e-016 6.36111e-015 -9.93923e-017 -2.20695e-032 1.27222e-014 9.93923e-017 0.500993 -4.33641 -5.58931 
33.3226 95.9471 -27.6372 -1.232 2.17945 8.7267 -0.339224 1.30882 0.366129 6.84981 -6.73366 4.17264 -1.17335 9.32507 -11.7471 2.19201 -5.11457 0.00661324 0.385901 -3.89427 0.129798 -1.14863 -1.83718 -1.16009 0.229637 7.29674 -0.797299 -7.42685 -7.08352 -4.3156 2.44457 -8.12247 2.3864 -0.683795 2.61539 0.739618 -0.686697 2.61536 0.739812 1.01198 -9.42091 -5.93878 -24.7126 8.80063 3.72386 -56.5732 41.873 9.7677 13.1151 -13.446 -29.1489 7.35075 0.984762 -0.461084 -1.59028e-015 6.36111e-015 -0 -1.59028e-015 6.36111e-015 -3.18055e-015 -2.89342 12.3553 41.0904 41.7893 -39.6021 60.5903 -43.5378 -7.58969 61.2443 -24.5397 7.73012 4.48559 -1.98785e-016 -6.36111e-015 9.93923e-017 -0 0 2.98177e-016 0.30845 -4.24235 -5.58935 
33.3714 95.951 -27.5 -0.997659 1.98186 8.69594 -0.340528 1.2929 0.298942 6.51526 -6.26716 4.63537 -0.931775 9.06931 -11.9651 3.06611 -4.79884 -0.00937556 0.793677 -4.1787 -0.253519 -1.38104 -1.60344 -1.24841 0.246998 7.51766 -0.71603 -7.41681 -7.25272 -4.22175 2.43965 -8.10864 2.38246 -0.704033 2.58257 0.60605 -0.703092 2.58258 0.606018 1.19101 -8.56594 -5.80568 -24.7658 7.95184 3.60581 -57.5808 42.2573 10.3394 13.3079 -13.3944 -28.3696 7.03122 0.993862 -0.178726 -3.18055e-015 9.54166e-015 -0 -3.18055e-015 6.36111e-015 -0 -3.61012 11.0936 39.9632 36.4896 -37.3186 57.677 -43.2034 -8.5276 58.9172 -25.0224 9.6488 2.85126 1.98785e-015 0 -0 1.19271e-015 3.18056e-015 -1.98785e-016 -0.0106051 -4.39664 -5.34785 
33.3967 95.9509 -27.4143 -0.933123 1.77772 8.34787 -0.334156 1.28994 0.231271 6.53413 -5.98589 4.84366 -0.884595 9.26348 -11.6049 1.61604 -5.62177 0.0215034 0.330627 -3.44467 0.0944573 -1.43955 -1.48382 -1.09286 0.215022 7.71812 -0.671421 -7.38317 -7.33832 -4.02266 2.42297 -8.08257 2.40123 -0.671922 2.57407 0.470169 -0.672777 2.57405 0.470113 1.29201 -7.87446 -5.45671 -24.8586 7.42502 3.1121 -58.326 41.9839 11.0841 13.4492 -13.1054 -27.946 6.8042 0.994007 0.065502 3.18055e-015 3.18055e-015 -6.36111e-015 1.59028e-015 6.36111e-015 -3.18055e-015 -4.7003 9.85675 39.0675 27.744 -32.6429 53.3017 -44.5884 -10.2908 52.7755 -24.385 12.3172 2.16146 4.30356e-031 9.54166e-015 -2.5842e-015 7.95139e-016 9.54167e-015 -9.93923e-016 -0.14325 -4.53154 -4.97007 
33.4408 95.9513 -27.3451 -0.774544 1.48807 7.67965 -0.358225 1.30672 0.160231 6.429 -5.55032 5.02819 -0.882766 9.36211 -10.8393 2.09657 -5.71013 0.024365 0.61289 -3.42125 -0.188862 -1.59838 -1.41086 -1.02793 0.181646 8.0622 -0.58402 -7.23162 -7.54928 -3.49501 2.41077 -8.03879 2.37958 -0.720734 2.6124 0.330564 -0.720492 2.6124 0.329687 1.01744 -7.46095 -4.94349 -24.5882 7.1049 3.10844 -58.5814 42.2091 11.2443 13.3665 -12.6948 -27.2149 6.75611 1.01268 -0.0235627 1.59028e-015 -9.54166e-015 -3.18055e-015 -0 -6.36111e-015 -0 -4.68891 9.34771 38.6697 22.3895 -28.6846 50.8258 -42.8174 -13.5975 49.2313 -22.018 13.0134 1.41302 -7.95139e-016 6.36111e-015 -3.18055e-015 7.95139e-016 6.36111e-015 -2.38542e-015 0.232053 -4.53152 -4.60282 
33.4873 95.9242 -27.3021 -0.592342 1.17392 6.81907 -0.368098 1.3496 0.170484 6.2202 -5.04006 5.42019 -0.763174 9.33535 -10.3916 2.19222 -5.72172 0.0239719 0.746064 -3.55992 -0.307318 -1.8381 -1.4479 -1.03653 0.167461 8.56282 -0.455072 -7.07608 -7.90577 -2.81753 2.39676 -7.99434 2.36254 -0.743394 2.69806 0.350028 -0.743016 2.69805 0.350022 0.698477 -7.12157 -4.61868 -24.3459 6.81116 3.18335 -58.6201 42.6089 10.9902 13.3324 -12.3403 -26.4248 6.36262 1.1146 0.031931 1.59028e-015 -6.36111e-015 -0 -1.59028e-015 -9.54167e-015 -0 -3.74803 9.33007 38.5228 21.3096 -26.4743 49.7759 -40.6801 -15.7638 49.0873 -19.6525 12.5469 1.6097 -1.59028e-015 0 -7.95139e-016 8.82782e-032 3.18056e-015 -1.59028e-015 0.525806 -4.61581 -4.42319 
33.493 95.8919 -27.3052 -0.487183 0.914874 6.0279 -0.347731 1.4187 0.279444 6.02225 -4.76687 5.56749 -0.538472 9.48314 -9.93216 1.97446 -5.91456 0.023287 0.695266 -3.54915 -0.300088 -2.037 -1.65704 -1.28564 0.15971 9.16692 -0.341011 -6.94201 -8.26298 -2.1115 2.39868 -8.00632 2.37478 -0.704129 2.83571 0.566507 -0.703263 2.8357 0.567129 0.562309 -7.16885 -4.59341 -24.3653 6.87672 3.16476 -58.4464 42.784 10.3794 13.3202 -11.8685 -25.8907 6.28458 1.15537 0.0982685 -6.36111e-015 3.18055e-015 -3.18055e-015 -4.77083e-015 0 -3.18055e-015 -2.09344 10.0305 38.2636 25.0819 -26.5424 49.5725 -40.3223 -12.942 54.2388 -19.8979 10.9623 2.14585 -1.59028e-015 3.18055e-015 7.95139e-016 0 6.36111e-015 -0 0.444033 -4.68957 -4.40803 
33.4675 95.8755 -27.3196 -0.431803 0.666212 5.50935 -0.32317 1.5012 0.293306 5.96345 -4.50469 5.59124 -0.577632 9.46077 -9.62614 2.42995 -5.63469 0.0222981 0.815886 -3.88127 -0.357813 -2.15715 -1.75511 -1.48371 0.158975 9.54774 -0.263512 -6.79194 -8.49964 -1.53885 2.37143 -7.93798 2.36878 -0.654467 3.00067 0.597005 -0.654357 3.00068 0.596279 0.476544 -7.70293 -4.47627 -24.1534 7.41451 3.31171 -58.8378 42.4571 10.0907 13.4153 -11.6928 -25.9666 6.50524 1.22751 0.0694623 1.59028e-015 0 -1.59028e-015 0 0 -1.59028e-015 0.605833 11.6693 37.7243 31.3823 -28.4482 49.764 -41.9746 -7.36608 62.2385 -22.4597 9.57133 2.68856 1.59028e-015 -6.36111e-015 -2.38542e-015 1.59028e-015 -6.36111e-015 -3.18055e-015 0.347908 -4.51247 -4.29275 
33.4485 95.8905 -27.3146 -0.310923 0.514471 5.27043 -0.332019 1.53422 0.22201 5.85922 -4.1636 5.46028 -0.52738 9.16239 -9.08889 1.82306 -5.86659 0.0210589 0.654285 -3.51276 -0.260376 -2.29781 -1.65942 -1.69555 0.154535 9.56096 -0.119128 -6.68901 -8.60708 -1.16479 2.35219 -7.86825 2.33525 -0.670403 3.06712 0.45294 -0.670043 3.06711 0.453073 0.160343 -8.07598 -4.19576 -23.799 7.82604 3.45982 -59.0554 42.1212 10.1159 13.3727 -11.6705 -26.3752 6.65719 1.12411 -0.153205 -4.77083e-015 -3.18055e-015 -0 -1.59028e-015 0 -3.18055e-015 4.34491 13.5009 37.388 37.3836 -31.55 48.3597 -43.221 -2.43991 72.2516 -25.0626 8.41425 3.28641 -1.59028e-015 3.18055e-015 5.56597e-015 -3.18055e-015 0 4.77083e-015 0.617576 -4.355 -4.13557 
33.4104 95.8725 -27.3658 -0.256724 0.620693 5.01936 -0.325912 1.494 0.23064 5.72416 -4.10352 5.65328 -0.485064 8.90985 -9.26338 2.84768 -5.17685 0.00324714 0.982089 -4.15101 -0.453943 -2.39433 -1.88639 -1.586 0.216188 9.77641 -0.0584157 -6.71879 -8.74885 -1.10505 2.34451 -7.85656 2.33185 -0.658764 2.98669 0.46919 -0.658543 2.9867 0.469961 0.183607 -8.02467 -4.14082 -24.0284 7.83957 3.23263 -59.0285 42.0007 10.2002 13.3054 -11.7497 -26.6063 6.66444 1.07555 -0.381157 -1.59028e-015 6.36111e-015 -3.18055e-015 -1.59028e-015 3.18056e-015 -0 8.28844 14.9773 36.5095 41.7737 -35.3964 44.9243 -42.7639 1.94883 83.3457 -27.543 6.23928 3.48505 7.95139e-015 6.36111e-015 1.59028e-015 4.77083e-015 3.18056e-015 -0 0.389214 -4.63506 -4.0333 
